<svg width="36" height="35" viewBox="0 0 36 35" fill="none" xmlns="http://www.w3.org/2000/svg">
<path d="M20.5482 3.3875L23.4816 9.25417C23.8816 10.0708 24.9482 10.8542 25.8482 11.0042L31.1649 11.8875C34.5649 12.4542 35.3649 14.9208 32.9149 17.3542L28.7816 21.4875C28.0816 22.1875 27.6982 23.5375 27.9149 24.5042L29.0982 29.6208C30.0316 33.6708 27.8816 35.2375 24.2982 33.1208L19.3149 30.1708C18.4149 29.6375 16.9316 29.6375 16.0149 30.1708L11.0316 33.1208C7.46489 35.2375 5.29822 33.6542 6.23155 29.6208L7.41489 24.5042C7.63155 23.5375 7.24822 22.1875 6.54822 21.4875L2.41489 17.3542C-0.018446 14.9208 0.764888 12.4542 4.16489 11.8875L9.48155 11.0042C10.3649 10.8542 11.4316 10.0708 11.8316 9.25417L14.7649 3.3875C16.3649 0.204167 18.9649 0.204167 20.5482 3.3875V3.3875Z" stroke="#3163AA" stroke-width="1.5" stroke-linecap="round" stroke-linejoin="round"/>
</svg>
