<svg width="118" height="31" viewBox="0 0 118 31" fill="none" xmlns="http://www.w3.org/2000/svg">
<circle cx="15.5" cy="15.5" r="15.5" fill="black"/>
<circle cx="20" cy="17" r="5" fill="white"/>
<path d="M45.31 9.35L47.935 14.36L50.605 9.35H52.84L48.97 16.28V20H46.915V16.25L43.06 9.35H45.31ZM57.8689 20.075C57.0889 20.075 56.3789 19.925 55.7389 19.625C55.1089 19.325 54.5639 18.92 54.1039 18.41C53.6539 17.89 53.3039 17.31 53.0539 16.67C52.8039 16.02 52.6789 15.355 52.6789 14.675C52.6789 13.965 52.8089 13.29 53.0689 12.65C53.3389 12 53.7039 11.425 54.1639 10.925C54.6339 10.415 55.1839 10.015 55.8139 9.725C56.4539 9.425 57.1539 9.275 57.9139 9.275C58.6839 9.275 59.3839 9.43 60.0139 9.74C60.6539 10.05 61.1989 10.465 61.6489 10.985C62.0989 11.505 62.4489 12.085 62.6989 12.725C62.9489 13.365 63.0739 14.025 63.0739 14.705C63.0739 15.405 62.9439 16.08 62.6839 16.73C62.4239 17.37 62.0589 17.945 61.5889 18.455C61.1289 18.955 60.5789 19.35 59.9389 19.64C59.3089 19.93 58.6189 20.075 57.8689 20.075ZM54.7789 14.675C54.7789 15.135 54.8489 15.58 54.9889 16.01C55.1289 16.44 55.3289 16.825 55.5889 17.165C55.8589 17.495 56.1839 17.76 56.5639 17.96C56.9539 18.15 57.3939 18.245 57.8839 18.245C58.3839 18.245 58.8289 18.145 59.2189 17.945C59.6089 17.735 59.9339 17.46 60.1939 17.12C60.4539 16.77 60.6489 16.385 60.7789 15.965C60.9189 15.535 60.9889 15.105 60.9889 14.675C60.9889 14.215 60.9139 13.775 60.7639 13.355C60.6239 12.925 60.4189 12.545 60.1489 12.215C59.8889 11.875 59.5639 11.61 59.1739 11.42C58.7939 11.22 58.3639 11.12 57.8839 11.12C57.3739 11.12 56.9239 11.225 56.5339 11.435C56.1539 11.635 55.8339 11.905 55.5739 12.245C55.3139 12.585 55.1139 12.965 54.9739 13.385C54.8439 13.805 54.7789 14.235 54.7789 14.675ZM69.1768 20.075C68.3268 20.075 67.6018 19.935 67.0018 19.655C66.4118 19.365 65.9318 18.97 65.5618 18.47C65.2018 17.97 64.9368 17.405 64.7668 16.775C64.5968 16.135 64.5118 15.47 64.5118 14.78V9.35H66.5818V14.78C66.5818 15.22 66.6218 15.65 66.7018 16.07C66.7918 16.48 66.9368 16.85 67.1368 17.18C67.3368 17.51 67.6018 17.77 67.9318 17.96C68.2618 18.15 68.6718 18.245 69.1618 18.245C69.6618 18.245 70.0768 18.15 70.4068 17.96C70.7468 17.76 71.0118 17.495 71.2018 17.165C71.4018 16.835 71.5468 16.465 71.6368 16.055C71.7268 15.635 71.7718 15.21 71.7718 14.78V9.35H73.8268V14.78C73.8268 15.51 73.7368 16.195 73.5568 16.835C73.3868 17.475 73.1118 18.04 72.7318 18.53C72.3618 19.01 71.8818 19.39 71.2918 19.67C70.7018 19.94 69.9968 20.075 69.1768 20.075ZM84.4918 17.255C84.4918 17.855 84.3368 18.36 84.0268 18.77C83.7168 19.17 83.2968 19.475 82.7668 19.685C82.2468 19.895 81.6768 20 81.0568 20H75.9118V9.35H81.6118C82.1118 9.35 82.5418 9.485 82.9018 9.755C83.2718 10.015 83.5518 10.355 83.7418 10.775C83.9418 11.185 84.0418 11.615 84.0418 12.065C84.0418 12.575 83.9118 13.06 83.6518 13.52C83.3918 13.98 83.0118 14.32 82.5118 14.54C83.1218 14.72 83.6018 15.045 83.9518 15.515C84.3118 15.985 84.4918 16.565 84.4918 17.255ZM82.4068 16.865C82.4068 16.595 82.3518 16.355 82.2418 16.145C82.1318 15.925 81.9818 15.755 81.7918 15.635C81.6118 15.505 81.4018 15.44 81.1618 15.44H77.9818V18.245H81.0568C81.3068 18.245 81.5318 18.185 81.7318 18.065C81.9418 17.935 82.1068 17.765 82.2268 17.555C82.3468 17.345 82.4068 17.115 82.4068 16.865ZM77.9818 11.12V13.805H80.7418C80.9718 13.805 81.1818 13.75 81.3718 13.64C81.5618 13.53 81.7118 13.375 81.8218 13.175C81.9418 12.975 82.0018 12.735 82.0018 12.455C82.0018 12.185 81.9468 11.95 81.8368 11.75C81.7368 11.55 81.5968 11.395 81.4168 11.285C81.2468 11.175 81.0518 11.12 80.8318 11.12H77.9818ZM90.6521 20.075C89.8721 20.075 89.1621 19.925 88.5221 19.625C87.8921 19.325 87.3471 18.92 86.8871 18.41C86.4371 17.89 86.0871 17.31 85.8371 16.67C85.5871 16.02 85.4621 15.355 85.4621 14.675C85.4621 13.965 85.5921 13.29 85.8521 12.65C86.1221 12 86.4871 11.425 86.9471 10.925C87.4171 10.415 87.9671 10.015 88.5971 9.725C89.2371 9.425 89.9371 9.275 90.6971 9.275C91.4671 9.275 92.1671 9.43 92.7971 9.74C93.4371 10.05 93.9821 10.465 94.4321 10.985C94.8821 11.505 95.2321 12.085 95.4821 12.725C95.7321 13.365 95.8571 14.025 95.8571 14.705C95.8571 15.405 95.7271 16.08 95.4671 16.73C95.2071 17.37 94.8421 17.945 94.3721 18.455C93.9121 18.955 93.3621 19.35 92.7221 19.64C92.0921 19.93 91.4021 20.075 90.6521 20.075ZM87.5621 14.675C87.5621 15.135 87.6321 15.58 87.7721 16.01C87.9121 16.44 88.1121 16.825 88.3721 17.165C88.6421 17.495 88.9671 17.76 89.3471 17.96C89.7371 18.15 90.1771 18.245 90.6671 18.245C91.1671 18.245 91.6121 18.145 92.0021 17.945C92.3921 17.735 92.7171 17.46 92.9771 17.12C93.2371 16.77 93.4321 16.385 93.5621 15.965C93.7021 15.535 93.7721 15.105 93.7721 14.675C93.7721 14.215 93.6971 13.775 93.5471 13.355C93.4071 12.925 93.2021 12.545 92.9321 12.215C92.6721 11.875 92.3471 11.61 91.9571 11.42C91.5771 11.22 91.1471 11.12 90.6671 11.12C90.1571 11.12 89.7071 11.225 89.3171 11.435C88.9371 11.635 88.6171 11.905 88.3571 12.245C88.0971 12.585 87.8971 12.965 87.7571 13.385C87.6271 13.805 87.5621 14.235 87.5621 14.675ZM101.99 20.075C101.21 20.075 100.5 19.925 99.86 19.625C99.23 19.325 98.685 18.92 98.225 18.41C97.775 17.89 97.425 17.31 97.175 16.67C96.925 16.02 96.8 15.355 96.8 14.675C96.8 13.965 96.93 13.29 97.19 12.65C97.46 12 97.825 11.425 98.285 10.925C98.755 10.415 99.305 10.015 99.935 9.725C100.575 9.425 101.275 9.275 102.035 9.275C102.805 9.275 103.505 9.43 104.135 9.74C104.775 10.05 105.32 10.465 105.77 10.985C106.22 11.505 106.57 12.085 106.82 12.725C107.07 13.365 107.195 14.025 107.195 14.705C107.195 15.405 107.065 16.08 106.805 16.73C106.545 17.37 106.18 17.945 105.71 18.455C105.25 18.955 104.7 19.35 104.06 19.64C103.43 19.93 102.74 20.075 101.99 20.075ZM98.9 14.675C98.9 15.135 98.97 15.58 99.11 16.01C99.25 16.44 99.45 16.825 99.71 17.165C99.98 17.495 100.305 17.76 100.685 17.96C101.075 18.15 101.515 18.245 102.005 18.245C102.505 18.245 102.95 18.145 103.34 17.945C103.73 17.735 104.055 17.46 104.315 17.12C104.575 16.77 104.77 16.385 104.9 15.965C105.04 15.535 105.11 15.105 105.11 14.675C105.11 14.215 105.035 13.775 104.885 13.355C104.745 12.925 104.54 12.545 104.27 12.215C104.01 11.875 103.685 11.61 103.295 11.42C102.915 11.22 102.485 11.12 102.005 11.12C101.495 11.12 101.045 11.225 100.655 11.435C100.275 11.635 99.955 11.905 99.695 12.245C99.435 12.585 99.235 12.965 99.095 13.385C98.965 13.805 98.9 14.235 98.9 14.675ZM108.783 20V9.365H110.853V14.42L115.323 9.35H117.603L113.523 14.075L117.858 20H115.518L112.203 15.41L110.853 16.82V20H108.783Z" fill="black"/>
</svg>
